# xmcd
#
# Track frame offsets:
#	150
#	13914
#	28809
#	40705
#	52587
#	65757
#	79564
#	95299
#	110077
#	124380
#	138776
#	151100
#	163816
#	175882
#	189129
#	202190
#	216233
#	229494
#
# Disc length: 3253 seconds
#
# Revision: 1
# Processed by: cddbd v1.4PL0 Copyright (c) Steve Scherf et al.
# Submitted via: audiograbber 1.81.02
#
DISCID=f60cb312
DTITLE=T Bone Walker - Stormy Monday
DYEAR=1900
DGENRE=Blues
TTITLE0=they called it stormy monday
TTITLE1=i got a break baby
TTITLE2=low down dirty shame blues
TTITLE3=you don't love me blues
TTITLE4=mean old world world blues
TTITLE5=t-bone boogie
TTITLE6=evening
TTITLE7=t-bone blues
TTITLE8=trinity river falls
TTITLE9=wichita falls blues
TTITLE10=no worry blues
TTITLE11=don't leave me baby
TTITLE12=bobby sox blues
TTITLE13=i'm gonna find my baby
TTITLE14=my baby left me
TTITLE15=come back to me baby
TTITLE16=she is going to ruin me
TTITLE17=i can't stand being away from you
EXTD=
EXTT0=
EXTT1=
EXTT2=
EXTT3=
EXTT4=
EXTT5=
EXTT6=
EXTT7=
EXTT8=
EXTT9=
EXTT10=
EXTT11=
EXTT12=
EXTT13=
EXTT14=
EXTT15=
EXTT16=
EXTT17=
PLAYORDER=
